<?xml version="1.0" encoding="UTF-8"?>
<svg id="Layer_1" xmlns="http://www.w3.org/2000/svg" baseProfile="tiny" version="1.2" viewBox="0 0 863.23 426.74">
  <!-- Generator: Adobe Illustrator 29.4.0, SVG Export Plug-In . SVG Version: 2.1.0 Build 152)  -->
  <path d="M211.13,98.78c-1.07,43.03-49.57,69.08-88.18,69.58v-2.93c35.56-4.51,68.57-36.72,68.7-73.53,1.43-34.73-34.99-39.43-59.55-26.29-27.39,14.26-42.38,44.22-51.12,73.02-11.2,39.8-14.65,84.41,4.76,121.66,23.45,43.31,75.36,36.43,97.27-4.61l1.76.88c-13.09,43.56-67.07,64.97-102.76,33.47-32.15-29.53-36.28-77.94-28.64-119.16,9.09-44.64,32.71-92.59,75.81-112.28,34.09-15.93,83.4-4.9,81.96,40.21Z" fill="#fff"/>
  <path d="M264.16,177.15c-2.69,10.35-12.93-3-19.77-1.17-38.2,2.26-44.04,92.46,5.42,58.74.73-13.48,7.44-27.6,16.11-37.79l1.9,1.17c-3.56,13.87-7.38,35.43,6.88,44.17,11.43,5.45,26.24-.64,34.13-9.89l1.17.59c-9.44,21.16-49.96,41.38-59.18,10.11-26.18,28.42-64.81,12.12-52.95-27.32,5.92-18.84,20.13-36.74,38.74-44.16,8.23-3.07,25.19-5.86,27.54,5.57Z" fill="#fff"/>
  <path d="M381.93,237.79c-12.78,26.55-46.91,28.41-60.86,1.32-20.88-38.43-23.65-85.13-15.46-127.51,4.33-25.65,23.12-77.21,56.25-57.06,31.14,35.7-.34,117.97-35.89,141.8,4.43,27.71,23.85,73.93,54.64,40.87l1.32.59ZM321.58,147.41c-.45,13.96.93,29.23,3.37,43.51,19.93-17.7,30.54-42.43,34.35-68.63,1.26-17.9,6.68-42.74-5.56-58.15-26.75-12.85-31.69,67.76-32.16,83.28Z" fill="#fff"/>
  <path d="M459.28,237.79c-12.78,26.55-46.91,28.41-60.86,1.32-20.88-38.43-23.65-85.14-15.46-127.51,4.34-25.65,23.12-77.21,56.25-57.06,31.15,35.7-.34,117.97-35.89,141.8,4.44,27.7,23.85,73.93,54.64,40.87l1.32.59ZM398.93,147.41c-.45,13.96.93,29.23,3.37,43.51,19.93-17.7,30.54-42.43,34.35-68.63,1.26-17.9,6.68-42.74-5.56-58.15-26.75-12.85-31.69,67.76-32.16,83.28Z" fill="#fff"/>
  <path d="M550.83,232.96c-17.01,25.8-57,35.6-81.89,15.97-32.01-28.28-4.75-84.13,36.62-82.32,38.8,1.85,31.97,55.01-30.18,52.73,4.17,36.51,52.76,31.83,74.27,13.04l1.17.59ZM474.95,214.94c18.99,2.6,43.23-15.73,32.3-35.74-3.71-5.93-15.09-4.6-19.77-.07-9.78,8.46-12.85,23.64-12.52,35.82Z" fill="#fff"/>
  <path d="M583.64,302.83c-.08,22.61-8.41,47.51-27.39,61.08-15.54,11.75-40.91,12.62-54.71-2.86-32.77-34.27,9.23-90.36,51.71-72.79l-.49,2.04c-36.74-10.8-62.36,38.58-42.11,64.88,21.42,22.48,50.78,2.81,53.88-24.46,7.38-36.29-11.77-69.46-11.79-105.39.01-20.14,4.56-44.47,24.32-54.49l1.17.59c-31.08,39.75,5.97,88,5.42,131.4ZM579.98,135.69c1.29,12.51-21.99,25.07-23.29,7.47-1.3-12.24,21.82-24.34,23.29-7.47Z" fill="#fff"/>
  <path d="M685.89,232.96c-17.01,25.8-57,35.6-81.89,15.97-32.01-28.28-4.75-84.13,36.62-82.32,38.8,1.85,31.97,55.01-30.18,52.73,4.17,36.51,52.76,31.83,74.27,13.04l1.17.59ZM610.01,214.94c18.99,2.6,43.23-15.73,32.3-35.74-3.71-5.93-15.09-4.6-19.77-.07-9.78,8.46-12.85,23.64-12.52,35.82Z" fill="#fff"/>
  <path d="M695.05,356.42c1.28-15.35,29-17.77,26.95,0-1.29,15.35-29,17.76-26.95,0Z" fill="#fff"/>
  <path d="M740.59,356.42c1.28-15.35,29-17.77,26.95,0-1.29,15.35-29,17.76-26.95,0Z" fill="#fff"/>
  <path d="M786.14,356.42c1.28-15.35,29-17.77,26.95,0-1.29,15.35-29,17.76-26.95,0Z" fill="#fff"/>
  <path d="M332.56,292.81c-2.69,10.35-12.93-3-19.77-1.17-38.2,2.26-44.04,92.46,5.42,58.74.73-13.48,7.44-27.6,16.11-37.79l1.9,1.17c-3.56,13.87-7.38,35.43,6.88,44.17,11.43,5.45,26.24-.64,34.13-9.89l1.17.59c-9.44,21.16-49.96,41.38-59.18,10.11-26.18,28.42-64.81,12.12-52.95-27.32,5.92-18.84,20.13-36.74,38.74-44.16,8.23-3.07,25.19-5.86,27.54,5.57Z" fill="#fff"/>
  <path d="M497.79,348.62c-9.32,23.19-38.48,39.56-55.01,13.55-10.06-17.01-11.31-39.18-13.26-58.52-10.06,10.16-16.83,26.91-22.63,41.16-5.94,10.43-3.38,29.2-17.36,31.94-11.17,1.34-11.99-36.74-13.85-44.24.4-14.25-8.99-43.78,9.01-49,2.54-.62,11.34-2.56,11.87,1.1-5.17,24.88-4.05,52.43-1.61,77.2,6.63-24.7,17.07-54.77,36.25-72.58,19.26-10.1,14.87,21.43,18.02,32.74,3.82,34.1,17.25,63.32,47.53,26.07l1.03.59Z" fill="#fff"/>
  <path d="M679.05,326.35c1.66,32.9-32.89,57.93-63.21,44.6-36.23-17.76-27.2-68.77,5.05-86.06l1.76,1.32c-21.87,21.8-16.34,73.25,19.48,75.29,33.84-2.62,29.69-48.21.95-56.4-21.78-2.74-7.87-17.62,5.64-18.6,19.99,0,30.33,22.51,30.32,39.84Z" fill="#fff"/>
</svg>